<mxfile host="app.diagrams.net" modified="2022-08-19T03:59:21.593Z" agent="5.0 (Windows NT 10.0; Win64; x64) AppleWebKit/537.36 (KHTML, like Gecko) Chrome/104.0.0.0 Safari/537.36" etag="5uN3cXwe7EqASit7a91_" version="20.2.5" type="github">
  <diagram id="R2lEEEUBdFMjLlhIrx00" name="Page-1">
    <mxGraphModel dx="526" dy="520" grid="1" gridSize="10" guides="1" tooltips="1" connect="1" arrows="1" fold="1" page="1" pageScale="1" pageWidth="850" pageHeight="1100" math="0" shadow="0" extFonts="Permanent Marker^https://fonts.googleapis.com/css?family=Permanent+Marker">
      <root>
        <mxCell id="0" />
        <mxCell id="1" parent="0" />
        <mxCell id="C-vyLk0tnHw3VtMMgP7b-12" value="" style="edgeStyle=entityRelationEdgeStyle;endArrow=ERzeroToMany;startArrow=ERone;endFill=1;startFill=0;" parent="1" edge="1">
          <mxGeometry width="100" height="100" relative="1" as="geometry">
            <mxPoint x="700" y="175" as="sourcePoint" />
            <mxPoint x="700" y="355" as="targetPoint" />
          </mxGeometry>
        </mxCell>
        <mxCell id="NxoZXvzuUthPn0wsJfFL-1" value="Usuario" style="swimlane;childLayout=stackLayout;horizontal=1;startSize=30;horizontalStack=0;rounded=1;fontSize=14;fontStyle=0;strokeWidth=2;resizeParent=0;resizeLast=1;shadow=0;dashed=0;align=center;" vertex="1" parent="1">
          <mxGeometry x="115" y="200" width="140" height="80" as="geometry" />
        </mxCell>
        <mxCell id="NxoZXvzuUthPn0wsJfFL-2" value="Email&#xa;ContraseÃ±a" style="align=left;strokeColor=none;fillColor=none;spacingLeft=4;fontSize=12;verticalAlign=top;resizable=0;rotatable=0;part=1;" vertex="1" parent="NxoZXvzuUthPn0wsJfFL-1">
          <mxGeometry y="30" width="140" height="50" as="geometry" />
        </mxCell>
        <mxCell id="NxoZXvzuUthPn0wsJfFL-3" value="Producto" style="swimlane;childLayout=stackLayout;horizontal=1;startSize=30;horizontalStack=0;rounded=1;fontSize=14;fontStyle=0;strokeWidth=2;resizeParent=0;resizeLast=1;shadow=0;dashed=0;align=center;" vertex="1" parent="1">
          <mxGeometry x="270" y="110" width="140" height="110" as="geometry" />
        </mxCell>
        <mxCell id="NxoZXvzuUthPn0wsJfFL-4" value="Id producto&#xa;Nombre&#xa;Categoria&#xa;Precio" style="align=left;strokeColor=none;fillColor=none;spacingLeft=4;fontSize=12;verticalAlign=top;resizable=0;rotatable=0;part=1;" vertex="1" parent="NxoZXvzuUthPn0wsJfFL-3">
          <mxGeometry y="30" width="140" height="80" as="geometry" />
        </mxCell>
        <mxCell id="NxoZXvzuUthPn0wsJfFL-5" value="Ecommerce" style="swimlane;childLayout=stackLayout;horizontal=1;startSize=30;horizontalStack=0;rounded=1;fontSize=14;fontStyle=0;strokeWidth=2;resizeParent=0;resizeLast=1;shadow=0;dashed=0;align=center;" vertex="1" parent="1">
          <mxGeometry x="110" y="30" width="150" height="70" as="geometry" />
        </mxCell>
        <mxCell id="NxoZXvzuUthPn0wsJfFL-6" value="Nombre de la app" style="align=left;strokeColor=none;fillColor=none;spacingLeft=4;fontSize=12;verticalAlign=top;resizable=0;rotatable=0;part=1;" vertex="1" parent="NxoZXvzuUthPn0wsJfFL-5">
          <mxGeometry y="30" width="150" height="40" as="geometry" />
        </mxCell>
        <mxCell id="NxoZXvzuUthPn0wsJfFL-7" style="edgeStyle=orthogonalEdgeStyle;rounded=0;orthogonalLoop=1;jettySize=auto;html=1;exitX=0.5;exitY=1;exitDx=0;exitDy=0;" edge="1" parent="NxoZXvzuUthPn0wsJfFL-5" source="NxoZXvzuUthPn0wsJfFL-6" target="NxoZXvzuUthPn0wsJfFL-6">
          <mxGeometry relative="1" as="geometry" />
        </mxCell>
        <mxCell id="NxoZXvzuUthPn0wsJfFL-8" value="" style="endArrow=none;html=1;rounded=0;entryX=0.5;entryY=0;entryDx=0;entryDy=0;exitX=0.5;exitY=1;exitDx=0;exitDy=0;" edge="1" parent="1" source="NxoZXvzuUthPn0wsJfFL-6" target="NxoZXvzuUthPn0wsJfFL-1">
          <mxGeometry relative="1" as="geometry">
            <mxPoint x="90" y="134.5" as="sourcePoint" />
            <mxPoint x="250" y="134.5" as="targetPoint" />
          </mxGeometry>
        </mxCell>
        <mxCell id="NxoZXvzuUthPn0wsJfFL-9" value="" style="endArrow=none;html=1;rounded=0;entryX=0.5;entryY=0;entryDx=0;entryDy=0;" edge="1" parent="1" target="NxoZXvzuUthPn0wsJfFL-3">
          <mxGeometry relative="1" as="geometry">
            <mxPoint x="260" y="60" as="sourcePoint" />
            <mxPoint x="360" y="80" as="targetPoint" />
            <Array as="points">
              <mxPoint x="340" y="60" />
            </Array>
          </mxGeometry>
        </mxCell>
      </root>
    </mxGraphModel>
  </diagram>
</mxfile>
